/* XPM */
/* $Id: tilefall-icon-16x16.xpm,v 1.1 2000/04/22 17:03:08 root Exp root $ */
static char * tilefall_icon_16x16_xpm[] = {
"16 16 5 1",
"  c None",
"! c blue",
"# c #DADA00",
"$ c chartreuse3",
"% c red",
"                ",
"                ",
"!!!!!!  !!!!!!  ",
"!!!!!!  !!!!!!  ",
"##!!%%  !!%%%%  ",
"##!!%%  !!%%%%  ",
"##!!%%##!!%%$$  ",
"##!!%%##!!%%$$  ",
"$$!!%%##!!!!$$$$",
"$$!!%%##!!!!$$$$",
"$$!!%%$$!!%%$$$$",
"$$!!%%$$!!%%$$$$",
"##!!$$$$!!%%$$##",
"##!!$$$$!!%%$$##",
"##!!$$$$!!$$$$##",
"##!!$$$$!!$$$$##",
};
